<svg width="65" height="47" viewBox="0 0 65 47" fill="none" xmlns="http://www.w3.org/2000/svg">
<g id="Group 18">
<g id="g10">
<g id="g12">
<path id="path16" fill-rule="evenodd" clip-rule="evenodd" d="M36.4829 2.72686C36.2987 2.92533 35.6507 3.93679 35.6507 5.18986C35.6507 5.48986 35.6559 12.6731 35.6507 12.9308C35.6404 13.4773 35.3171 14.2556 35.0508 14.5304C34.8626 14.7247 33.7083 15.8075 33.606 15.9213L34.2605 15.9319C34.4731 15.7216 36.697 13.6876 36.9297 13.414C37.2322 13.059 37.953 12.1598 37.953 10.7475C37.953 10.4155 37.9567 3.61007 37.9567 3.30969C37.9567 2.19365 38.4604 1.57456 38.7204 1.2757C38.9863 0.96883 39.8629 0.214243 40.0182 0.0443945L39.3314 0.0230179C39.1657 0.194393 36.7114 2.48067 36.4829 2.72686Z" fill="#E02042"/>
<path id="path18" fill-rule="evenodd" clip-rule="evenodd" d="M30.9778 30.8751L33.7005 33.3298H35.5235C37.3775 33.3298 39.0721 32.511 40.1898 31.3574C41.3093 30.2024 41.7206 28.652 41.7206 27.201C41.7206 26.1452 41.7206 23.3701 41.7206 23.1772C41.7206 21.8252 40.8977 21.0385 40.6691 20.8026C40.5445 20.674 39.7512 19.9023 39.7512 19.9023V22.9896C39.7512 22.9896 40.6251 23.9209 40.7974 24.1098C41.6048 24.9954 41.5959 26.6074 39.0396 29.1801C38.5913 29.6301 37.3139 30.8751 35.5556 30.8751C35.3053 30.8751 30.9778 30.8751 30.9778 30.8751Z" fill="#E02042"/>
<path id="path20" fill-rule="evenodd" clip-rule="evenodd" d="M38.5514 14.3612C38.2474 14.6925 37.9567 15.5032 37.9567 16.2169C37.9567 16.6139 37.9567 17.741 37.9567 17.741C37.9567 17.741 39.1591 17.741 39.4538 17.741C40.0356 17.741 40.8041 17.194 40.9702 16.9047C40.9805 16.8833 40.9702 15.3932 40.9702 15.3932C40.9702 15.3932 41.3544 15.9616 41.7698 16.2616C41.9259 16.0581 43.2891 14.3524 44.4304 14.3428C46.3362 14.3268 45.9054 16.8081 45.1265 17.6017C44.8743 17.8574 43.7488 18.9227 43.4008 19.2643C42.501 20.1486 40.9598 19.725 40.9598 17.4406C40.9598 17.4406 39.307 19.0605 39.0588 19.275C38.8095 19.4891 37.9567 20.4223 37.9567 20.4223C37.9567 20.4223 37.9567 24.0505 37.9567 24.4364C37.9567 26.3618 37.3427 27.0078 36.8335 27.5868C36.6363 27.8116 34.5353 29.7893 34.2549 30.004L33.568 30.0198C33.568 30.0198 34.7975 28.8663 35.0442 28.6024C35.3245 28.302 35.6507 27.6923 35.6507 26.6767C35.6507 26.4195 35.6196 20.3681 35.6196 20.3681C35.6196 20.3681 26.4792 20.3681 26.0637 20.3681C22.7399 20.3681 22.0295 16.5616 22.0085 15.5432C22.0034 15.2432 22.0085 12.2027 22.0085 11.731C22.0085 11.1054 21.6206 10.0493 21.0013 9.7241H21.9386C22.0466 9.77066 22.6357 10.0161 22.6357 12.3501C22.6357 12.3501 22.5957 15.0661 22.5957 15.2108C22.5957 16.394 23.5073 17.7517 24.8247 17.7517C25.095 17.7517 35.6404 17.741 35.6404 17.741C35.6507 17.4406 35.9414 16.3016 36.461 15.7001C36.7558 15.3608 39.0758 13.1703 39.3406 12.9596L40.0274 12.9516C39.9239 13.0497 38.8022 14.0883 38.5514 14.3612ZM42.1023 16.6475C42.1023 16.6475 42.7284 17.5051 43.0269 17.7517C44.1915 18.7162 44.7444 17.6807 43.963 16.5723C43.6541 16.1352 42.4555 16.2616 42.1023 16.6475Z" fill="#E02042"/>
<path id="path22" fill-rule="evenodd" clip-rule="evenodd" d="M30.5051 23.8387C30.5051 24.3777 28.8369 25.8086 28.7392 25.9092C28.6186 25.3288 28.1979 24.6873 26.9543 23.4034L28.7797 21.5197C30.0028 22.7833 30.5051 23.0526 30.5051 23.8387Z" fill="#E02042"/>
<path id="path24" fill-rule="evenodd" clip-rule="evenodd" d="M33.6707 2.24272C34.0371 2.62097 34.8249 3.64617 34.3526 4.13472C33.9343 4.56603 33.2865 5.25001 33.2865 5.25001C33.2541 5.00306 32.6475 4.40992 32.6475 4.40992C32.6475 4.40992 32.6527 6.22902 32.6475 6.4546C32.627 7.27598 32.327 7.51033 32.327 7.51033C32.327 7.51033 33.7981 9.01646 33.7981 10.9512C33.7981 11.8894 33.8018 12.7524 33.8018 12.9383C33.8018 13.3348 33.7046 13.6421 33.437 13.9459C33.3045 14.0974 31.9413 15.5108 31.7337 15.7039C31.3389 16.0711 30.9232 16.1326 30.6119 16.1326C30.3936 16.1326 25.6872 16.1326 25.5417 16.1326C24.7431 16.1326 23.9213 15.4898 23.9213 14.8467C23.9213 14.6856 23.9316 12.9062 23.9316 12.9062C24.1915 13.2173 24.456 13.5803 25.095 13.5707C25.5937 13.5631 26.1181 13.1585 26.2582 13.0134C26.4037 12.8623 30.0937 8.88134 30.0937 8.88134C30.0937 8.88134 28.3654 7.22751 27.2269 6.44238C26.6713 6.05803 25.9338 6.54277 25.8222 7.04812C25.4729 8.6321 25.8222 11.0073 25.8222 11.0073C25.8222 11.0073 24.6938 9.84586 24.4225 9.56608C23.859 8.98287 23.8797 7.66454 24.551 6.97178C24.6574 6.86147 25.6805 5.66757 26.9802 5.66757C27.1881 5.66757 28.7747 5.66757 29.0043 5.66757C30.3624 5.66757 31.8478 7.06414 31.8478 7.06414C31.8478 7.06414 32.0661 6.81758 32.0661 6.57903C32.0661 5.8607 32.0398 3.92327 32.0398 3.92327C31.0183 2.86906 30.8792 1.7805 31.3686 1.27553C32.2828 0.332395 32.6151 -5.34058e-05 32.6151 -5.34058e-05C32.6151 -5.34058e-05 32.6049 1.14385 33.6707 2.24272ZM27.3099 12.7562C26.81 13.2963 26.7232 13.4314 26.2558 13.7207C26.2973 13.7207 31.7882 13.7207 31.966 13.7207C33.5136 13.7207 33.2059 12.7295 32.928 12.2299C32.3594 11.2047 30.5622 9.29929 30.5622 9.29929C30.5622 9.29929 27.414 12.6421 27.3099 12.7562Z" fill="#E02042"/>
<path id="path26" fill-rule="evenodd" clip-rule="evenodd" d="M20.7988 18.1205H19.8615C19.8615 18.1205 20.8687 18.6915 20.8687 20.1641C20.8687 20.5526 20.8687 24.5456 20.8687 24.8669C20.8687 27.9277 23.3148 30.7574 26.2871 30.7574C26.7868 30.7574 28.4373 30.7574 28.7695 30.7574C30.2602 30.7574 30.7832 30.3851 31.6842 29.5597C32.0143 29.2566 32.4437 28.7595 32.6009 28.5787C33.1203 27.9785 33.6733 27.4935 33.6733 25.9176C33.6733 25.5318 33.6733 24.5924 33.6733 24.3782C33.6733 23.0475 32.927 22.4943 32.5659 22.1217C32.3348 21.8832 31.6998 21.2572 31.6998 21.2572V24.4101C31.6998 24.4101 32.3255 25.0976 32.6009 25.3212C33.8903 26.3719 32.8644 28.1955 31.6686 28.1955C31.4298 28.1955 26.5492 28.197 26.2169 28.2061C24.2096 28.2574 21.4959 26.4095 21.4959 23.3022C21.4959 22.884 21.4959 21.0175 21.4959 20.7465C21.4959 18.1205 20.7988 18.1205 20.7988 18.1205Z" fill="#E02042"/>
<path id="path28" fill-rule="evenodd" clip-rule="evenodd" d="M26.7736 23.8473C26.7736 24.3844 25.1053 25.8167 25.0082 25.9174C24.8886 25.3369 24.4667 24.6955 23.2228 23.4117L25.0482 21.5276C26.2728 22.7914 26.7736 23.0592 26.7736 23.8473Z" fill="#E02042"/>
<path id="path30" fill-rule="evenodd" clip-rule="evenodd" d="M7.68654 44.7637C7.38923 44.7637 5.09475 44.7598 4.76651 44.7598C3.84567 44.7598 3.91602 43.9707 3.83539 43.2963V38.9725C3.83539 38.9725 4.47426 38.9564 5.19864 38.9564C6.00767 38.9564 7.01535 38.833 7.99544 39.4055C7.99544 39.4055 7.29055 37.6514 5.19342 37.6514H3.83539C3.83539 37.6514 3.83539 37.4023 3.83539 36.8017V36.2659C3.83539 36.2659 3.83539 35.0586 3.5498 34.7021C3.5498 34.7021 5.35582 34.7089 5.47905 34.7089C7.14883 34.7101 8.43966 34.6835 9.78193 35.6064C9.78193 35.6064 9.52493 33.326 6.29978 33.326C4.43942 33.326 0.263514 33.326 0 33.326C0 33.326 1.09348 34.2923 1.0633 36.259L1.09348 44.1381C1.09348 46.1159 1.8605 46.1706 1.8605 46.1706C1.93476 46.1706 2.32266 46.1706 4.0121 46.1706C4.29511 46.1706 4.63662 46.1706 5.00909 46.1706C5.92068 46.1706 7.10722 46.1706 8.06941 46.1706C9.47666 46.1706 9.9663 45.1321 9.9663 44.5696L9.98723 43.8138C9.98723 43.8138 9.54039 44.7637 7.68654 44.7637Z" fill="#E02042"/>
<path id="path32" fill-rule="evenodd" clip-rule="evenodd" d="M24.2146 44.0983V38.5869C24.2146 36.4484 22.5216 35.8802 21.2608 35.8802C19.5913 35.8802 19.0914 37.3194 18.8785 37.814C18.5059 36.4725 17.2049 35.8644 16.1376 35.8644C14.1211 35.8644 13.6095 37.8459 13.6095 37.8459C13.6095 37.8459 13.5617 35.9327 11.9426 35.9327L10.3559 35.9366C10.3559 35.9366 11.275 36.3266 11.275 37.98L11.2724 44.0993C11.2724 46.1201 12.0619 46.155 12.0619 46.155H14.6768C14.6094 46.1201 13.673 45.3912 13.673 44.0823V38.6542C13.7056 38.4129 14.1004 37.5929 15.2284 37.5929C15.8674 37.5929 16.57 38.2801 16.5541 39.0534L16.5516 44.0967C16.5516 46.1469 17.3308 46.1523 17.3308 46.1523H19.9561C19.9561 46.1523 18.9523 45.4234 18.9523 44.0796L18.9446 38.65C19.0432 38.3473 19.3884 37.6099 20.3792 37.6099C21.1687 37.6099 21.8297 38.2975 21.8138 39.0707C21.8138 39.0707 21.8088 43.6747 21.8113 44.1021C21.8231 46.1656 22.5905 46.1469 22.5905 46.1469C23.9576 46.1469 25.2158 46.1523 25.2158 46.1523C25.2158 46.1523 24.2146 45.4383 24.2146 44.0983Z" fill="#E02042"/>
<path id="path34" fill-rule="evenodd" clip-rule="evenodd" d="M28.8018 44.0952C28.8018 45.4538 29.8092 46.152 29.8092 46.152C29.8092 46.152 28.5604 46.1466 27.1943 46.1466C27.1943 46.1466 26.3921 46.1588 26.3921 44.1111V44.1018L26.3945 37.9648C26.3945 36.3464 25.486 35.9309 25.486 35.9309H27.0725C27.6319 35.9309 28.7968 35.9309 28.7968 38.2196L28.7927 44.0856L28.8018 44.0952Z" fill="#E02042"/>
<path id="path36" fill-rule="evenodd" clip-rule="evenodd" d="M36.8583 36.7021C36.8583 36.7021 36.6064 35.9665 35.5198 35.9665C33.8773 35.9665 33.4772 37.9806 33.4772 37.9806C33.3436 36.3889 32.9307 35.9182 31.7713 35.9182L30.1846 35.9224C30.1846 35.9224 31.104 36.3109 31.104 37.9644L31.1011 44.092C31.1011 46.1137 31.8905 46.1473 31.8905 46.1473H34.5057C34.438 46.1137 33.5017 45.3849 33.5017 44.0756L33.5043 39.0589C33.5731 38.6035 33.8007 38.2537 34.1458 38.0233C35.0083 37.4474 36.1844 37.5837 36.8583 38.4334C36.8583 38.4334 36.8583 37.3494 36.8583 36.7021Z" fill="#E02042"/>
<path id="path38" fill-rule="evenodd" clip-rule="evenodd" d="M49.0617 37.0725C49.9471 37.0725 50.6083 37.4718 50.6083 37.4718L50.6157 35.9297H48.4163L48.4174 33.5916C48.4174 33.5916 47.8401 34.6232 46.6569 35.6254C45.9146 36.2553 44.355 37.0323 44.355 37.0323L46.0156 37.0631L46.013 44.1742C46.013 46.1466 46.8119 46.1466 46.8119 46.1466C48.2465 46.1466 49.4241 46.152 49.4241 46.152C49.4241 46.152 48.4137 45.4538 48.4137 44.1568L48.4163 37.0685C49.1057 37.071 48.6304 37.0725 49.0617 37.0725Z" fill="#E02042"/>
<path id="path40" fill-rule="evenodd" clip-rule="evenodd" d="M57.0129 40.1597C55.5457 41.7435 54.394 41.4954 53.472 42.6558C53.472 42.6573 53.62 44.2291 54.785 44.7837C55.1837 44.974 56.7988 45.5756 57.8454 43.7119L57.8376 45.3613C57.8376 45.3613 57.1664 46.1666 55.0342 46.1666C52.4649 46.1666 50.7052 44.0818 50.7052 41.2543C50.7052 38.474 52.1402 35.893 54.8486 35.8787C57.5037 35.864 58.9409 38.0776 57.0129 40.1597ZM55.407 39.511C55.8416 38.6829 56.183 36.5805 54.6992 36.6956C52.9801 36.8286 53.3074 41.5464 53.3074 41.5464C53.8826 40.9019 54.7447 40.7705 55.407 39.511Z" fill="#E02042"/>
<path id="path42" fill-rule="evenodd" clip-rule="evenodd" d="M27.5867 35.1038C28.2605 35.1038 28.8071 34.5518 28.8071 33.8712C28.8071 33.1906 28.2605 32.6383 27.5867 32.6383C26.9127 32.6383 26.3662 33.1906 26.3662 33.8712C26.3662 34.5518 26.9127 35.1038 27.5867 35.1038Z" fill="#E02042"/>
<path id="path44" fill-rule="evenodd" clip-rule="evenodd" d="M39.5833 44.9926C38.9864 44.9926 38.5607 44.3523 38.5607 43.6958C38.5607 41.1446 40.5845 40.7922 41.1259 40.1115L41.13 44.4126C40.8911 44.6321 40.6481 44.9926 39.5833 44.9926ZM41.1259 39.1266C40.5172 40.2267 35.7843 40.4597 36.5103 44.2371C36.7973 45.7351 37.7644 46.1719 38.9812 46.1719C40.1628 46.1719 40.8729 45.5353 41.1699 44.9433C41.3467 46.0807 41.9037 46.1464 41.9037 46.1464C43.271 46.1464 44.5189 46.1518 44.5189 46.1518C44.5189 46.1518 43.5007 45.4536 43.5007 44.1057V38.3628C43.5007 36.9893 42.0246 35.9201 40.4561 35.9201C38.9486 35.9201 38.0007 36.6691 38.0007 36.6691C38.0007 37.1288 38.0007 38.4512 38.0007 38.4512C38.0007 38.4512 38.5385 37.0392 39.9028 37.0392C41.2335 37.0392 41.3323 37.7235 41.3245 38.0654C41.3245 38.0654 41.4588 38.5276 41.1259 39.1266Z" fill="#E02042"/>
<path id="path46" fill-rule="evenodd" clip-rule="evenodd" d="M62.8024 43.3774C62.8169 44.0995 62.1907 45.0483 60.8589 45.0483C59.4953 45.0483 58.9502 43.6081 58.9502 43.6081V45.4331C58.9502 45.4331 59.9343 46.1567 61.4418 46.1567C63.2307 46.1567 65.0396 44.7536 64.9993 42.7998C64.986 42.1126 64.7486 41.527 64.385 41.0218C63.7799 40.1844 62.6778 39.599 61.8246 39.0573C61.3379 38.7478 61.0793 38.1947 61.0731 38.0003C61.0586 37.6584 61.2195 36.9672 62.5517 36.9672C63.8513 36.9672 64.4046 38.3793 64.4046 38.3793L64.3994 36.6697C64.3994 36.6697 63.4049 35.8551 61.8974 35.8551C60.3289 35.8551 58.9047 36.9242 58.9317 38.2977C58.9564 39.5036 59.4483 40.2848 60.4044 41.0207C60.7824 41.3112 61.2328 41.5939 61.7547 41.8928C62.5155 42.3284 62.7921 42.8617 62.8024 43.3774Z" fill="#E02042"/>
</g>
</g>
</g>
</svg>
