<svg width="53" height="47" viewBox="0 0 53 47" fill="none" xmlns="http://www.w3.org/2000/svg">
<g id="Group 18">
<g id="g10">
<g id="g12">
<path id="path16" fill-rule="evenodd" clip-rule="evenodd" d="M29.5555 2.72676C29.4063 2.92522 28.8813 3.93664 28.8813 5.18966C28.8813 5.48965 28.8855 12.6726 28.8813 12.9303C28.8729 13.4768 28.6111 14.255 28.3954 14.5298C28.2428 14.7241 27.3078 15.8069 27.2249 15.9206L27.7551 15.9313C27.9274 15.721 29.729 13.6871 29.9174 13.4135C30.1625 13.0585 30.7464 12.1593 30.7464 10.7471C30.7464 10.4151 30.7494 3.60994 30.7494 3.30956C30.7494 2.19357 31.1575 1.5745 31.3682 1.27566C31.5836 0.968798 32.2937 0.21424 32.4195 0.0443983L31.8631 0.0230227C31.7289 0.194391 29.7406 2.48058 29.5555 2.72676Z" fill="#E02042"/>
<path id="path18" fill-rule="evenodd" clip-rule="evenodd" d="M25.0957 30.8738L27.3014 33.3284H28.7782C30.2802 33.3284 31.6531 32.5096 32.5585 31.3561C33.4655 30.2011 33.7986 28.6508 33.7986 27.1998C33.7986 26.1441 33.7986 23.3691 33.7986 23.1762C33.7986 21.8243 33.132 21.0376 32.9468 20.8018C32.8458 20.6731 32.2032 19.9014 32.2032 19.9014V22.9886C32.2032 22.9886 32.9112 23.9199 33.0508 24.1088C33.7048 24.9944 33.6977 26.6063 31.6267 29.1788C31.2636 29.6288 30.2287 30.8738 28.8043 30.8738C28.6015 30.8738 25.0957 30.8738 25.0957 30.8738Z" fill="#E02042"/>
<path id="path20" fill-rule="evenodd" clip-rule="evenodd" d="M31.2312 14.3606C30.9849 14.6919 30.7494 15.5025 30.7494 16.2162C30.7494 16.6132 30.7494 17.7402 30.7494 17.7402C30.7494 17.7402 31.7235 17.7402 31.9623 17.7402C32.4336 17.7402 33.0562 17.1933 33.1907 16.904C33.1991 16.8826 33.1907 15.3926 33.1907 15.3926C33.1907 15.3926 33.502 15.9609 33.8385 16.2609C33.9649 16.0575 35.0693 14.3518 35.9939 14.3422C37.5379 14.3262 37.1888 16.8074 36.5578 17.6009C36.3535 17.8566 35.4417 18.9219 35.1598 19.2635C34.4308 20.1478 33.1823 19.7241 33.1823 17.4399C33.1823 17.4399 31.8433 19.0597 31.6423 19.2742C31.4403 19.4883 30.7494 20.4214 30.7494 20.4214C30.7494 20.4214 30.7494 24.0495 30.7494 24.4354C30.7494 26.3607 30.2521 27.0067 29.8395 27.5856C29.6798 27.8105 27.9777 29.7881 27.7506 30.0028L27.1941 30.0186C27.1941 30.0186 28.1901 28.8651 28.3899 28.6012C28.617 28.3008 28.8813 27.6912 28.8813 26.6756C28.8813 26.4184 28.8561 20.3673 28.8561 20.3673C28.8561 20.3673 21.4513 20.3673 21.1147 20.3673C18.422 20.3673 17.8465 16.5609 17.8295 15.5426C17.8253 15.2426 17.8295 12.2022 17.8295 11.7305C17.8295 11.1049 17.5153 10.0489 17.0135 9.72369H17.7729C17.8603 9.77025 18.3376 10.0157 18.3376 12.3496C18.3376 12.3496 18.3052 15.0655 18.3052 15.2102C18.3052 16.3933 19.0437 17.7509 20.111 17.7509C20.3299 17.7509 28.8729 17.7402 28.8729 17.7402C28.8813 17.4399 29.1168 16.301 29.5378 15.6995C29.7766 15.3602 31.6561 13.1698 31.8706 12.9591L32.427 12.9511C32.3431 13.0492 31.4344 14.0877 31.2312 14.3606ZM34.1078 16.6468C34.1078 16.6468 34.6151 17.5044 34.8569 17.7509C35.8004 18.7154 36.2483 17.6799 35.6152 16.5716C35.365 16.1346 34.394 16.2609 34.1078 16.6468Z" fill="#E02042"/>
<path id="path22" fill-rule="evenodd" clip-rule="evenodd" d="M24.7128 23.8377C24.7128 24.3767 23.3613 25.8075 23.2822 25.9081C23.1845 25.3277 22.8437 24.6862 21.8362 23.4024L23.315 21.5188C24.3058 22.7823 24.7128 23.0516 24.7128 23.8377Z" fill="#E02042"/>
<path id="path24" fill-rule="evenodd" clip-rule="evenodd" d="M27.2773 2.24265C27.5741 2.62088 28.2123 3.64604 27.8296 4.13458C27.4908 4.56586 26.966 5.24981 26.966 5.24981C26.9398 5.00288 26.4483 4.40976 26.4483 4.40976C26.4483 4.40976 26.4525 6.22879 26.4483 6.45436C26.4317 7.2757 26.1887 7.51005 26.1887 7.51005C26.1887 7.51005 27.3804 9.01611 27.3804 10.9508C27.3804 11.8889 27.3835 12.7519 27.3835 12.9377C27.3835 13.3343 27.3047 13.6415 27.0879 13.9454C26.9806 14.0969 25.8763 15.5102 25.7081 15.7033C25.3882 16.0705 25.0515 16.1319 24.7993 16.1319C24.6224 16.1319 20.8097 16.1319 20.6918 16.1319C20.0448 16.1319 19.3791 15.4892 19.3791 14.8461C19.3791 14.685 19.3874 12.9057 19.3874 12.9057C19.598 13.2167 19.8123 13.5797 20.3299 13.5702C20.7339 13.5625 21.1588 13.158 21.2723 13.0129C21.3902 12.8618 24.3795 8.881 24.3795 8.881C24.3795 8.881 22.9793 7.22723 22.0571 6.44214C21.6069 6.05781 21.0094 6.54252 20.9191 7.04785C20.6361 8.63177 20.9191 11.0069 20.9191 11.0069C20.9191 11.0069 20.0049 9.84548 19.7851 9.56571C19.3286 8.98252 19.3454 7.66424 19.8893 6.97152C19.9754 6.86122 20.8043 5.66736 21.8572 5.66736C22.0256 5.66736 23.3109 5.66736 23.497 5.66736C24.5971 5.66736 25.8005 7.06388 25.8005 7.06388C25.8005 7.06388 25.9774 6.81732 25.9774 6.57878C25.9774 5.86048 25.9561 3.92314 25.9561 3.92314C25.1285 2.86897 25.0158 1.78045 25.4123 1.27551C26.1529 0.332406 26.4221 -2.86102e-05 26.4221 -2.86102e-05C26.4221 -2.86102e-05 26.4138 1.14383 27.2773 2.24265ZM22.1242 12.7557C21.7193 13.2958 21.6489 13.4309 21.2703 13.7202C21.3039 13.7202 25.7522 13.7202 25.8963 13.7202C27.15 13.7202 26.9007 12.729 26.6756 12.2294C26.2149 11.2042 24.759 9.29893 24.759 9.29893C24.759 9.29893 22.2086 12.6416 22.1242 12.7557Z" fill="#E02042"/>
<path id="path26" fill-rule="evenodd" clip-rule="evenodd" d="M16.8495 18.1198H16.0902C16.0902 18.1198 16.9062 18.6908 16.9062 20.1633C16.9062 20.5518 16.9062 24.5446 16.9062 24.8659C16.9062 27.9266 18.8877 30.7561 21.2957 30.7561C21.7005 30.7561 23.0376 30.7561 23.3067 30.7561C24.5143 30.7561 24.938 30.3839 25.668 29.5585C25.9354 29.2554 26.2833 28.7583 26.4106 28.5775C26.8314 27.9774 27.2794 27.4924 27.2794 25.9166C27.2794 25.5307 27.2794 24.5914 27.2794 24.3772C27.2794 23.0466 26.6747 22.4933 26.3823 22.1208C26.195 21.8823 25.6806 21.2564 25.6806 21.2564V24.4091C25.6806 24.4091 26.1875 25.0966 26.4106 25.3202C27.4552 26.3709 26.6241 28.1943 25.6554 28.1943C25.4619 28.1943 21.508 28.1958 21.2388 28.2049C19.6127 28.2562 17.4142 26.4084 17.4142 23.3012C17.4142 22.8831 17.4142 21.0167 17.4142 20.7457C17.4142 18.1198 16.8495 18.1198 16.8495 18.1198Z" fill="#E02042"/>
<path id="path28" fill-rule="evenodd" clip-rule="evenodd" d="M21.6898 23.8464C21.6898 24.3834 20.3383 25.8157 20.2596 25.9163C20.1627 25.3359 19.821 24.6945 18.8132 23.4107L20.292 21.5267C21.2841 22.7905 21.6898 23.0583 21.6898 23.8464Z" fill="#E02042"/>
<path id="path30" fill-rule="evenodd" clip-rule="evenodd" d="M6.22701 44.7618C5.98615 44.7618 4.12735 44.7579 3.86144 44.7579C3.11545 44.7579 3.17244 43.9688 3.10712 43.2945V38.9709C3.10712 38.9709 3.62468 38.9548 4.21151 38.9548C4.86693 38.9548 5.68326 38.8313 6.47725 39.4038C6.47725 39.4038 5.90621 37.6498 4.20729 37.6498H3.10712C3.10712 37.6498 3.10712 37.4007 3.10712 36.8001V36.2643C3.10712 36.2643 3.10712 35.0571 2.87576 34.7007C2.87576 34.7007 4.33885 34.7074 4.43868 34.7074C5.7914 34.7086 6.83712 34.682 7.92452 35.6049C7.92452 35.6049 7.71632 33.3246 5.10356 33.3246C3.59646 33.3246 0.213478 33.3246 0 33.3246C0 33.3246 0.885847 34.2908 0.861398 36.2575L0.885847 44.1362C0.885847 46.1139 1.50722 46.1686 1.50722 46.1686C1.56739 46.1686 1.88163 46.1686 3.25028 46.1686C3.47955 46.1686 3.75621 46.1686 4.05796 46.1686C4.79646 46.1686 5.75769 46.1686 6.53717 46.1686C7.67722 46.1686 8.07388 45.1302 8.07388 44.5677L8.09084 43.8119C8.09084 43.8119 7.72884 44.7618 6.22701 44.7618Z" fill="#E02042"/>
<path id="path32" fill-rule="evenodd" clip-rule="evenodd" d="M19.6167 44.0963V38.5852C19.6167 36.4469 18.2451 35.8787 17.2237 35.8787C15.8713 35.8787 15.4663 37.3178 15.2938 37.8123C14.992 36.4709 13.938 35.8629 13.0734 35.8629C11.4398 35.8629 11.0253 37.8443 11.0253 37.8443C11.0253 37.8443 10.9866 35.9311 9.67491 35.9311L8.3895 35.935C8.3895 35.935 9.13408 36.325 9.13408 37.9783L9.13198 44.0973C9.13198 46.1181 9.7716 46.153 9.7716 46.153H11.89C11.8353 46.1181 11.0768 45.3892 11.0768 44.0804V38.6525C11.1031 38.4112 11.423 37.5912 12.3368 37.5912C12.8545 37.5912 13.4236 38.2784 13.4108 39.0517L13.4088 44.0948C13.4088 46.1449 14.04 46.1503 14.04 46.1503H16.1668C16.1668 46.1503 15.3536 45.4214 15.3536 44.0777L15.3474 38.6483C15.4272 38.3457 15.7069 37.6082 16.5096 37.6082C17.1492 37.6082 17.6846 38.2958 17.6718 39.069C17.6718 39.069 17.6677 43.6727 17.6698 44.1002C17.6793 46.1636 18.301 46.1449 18.301 46.1449C19.4085 46.1449 20.4278 46.1503 20.4278 46.1503C20.4278 46.1503 19.6167 45.4363 19.6167 44.0963Z" fill="#E02042"/>
<path id="path34" fill-rule="evenodd" clip-rule="evenodd" d="M23.3329 44.0933C23.3329 45.4518 24.149 46.15 24.149 46.15C24.149 46.15 23.1373 46.1446 22.0306 46.1446C22.0306 46.1446 21.3807 46.1569 21.3807 44.1093V44.0999L21.3827 37.9632C21.3827 36.3449 20.6467 35.9294 20.6467 35.9294H21.932C22.3851 35.9294 23.3288 35.9294 23.3288 38.218L23.3255 44.0838L23.3329 44.0933Z" fill="#E02042"/>
<path id="path36" fill-rule="evenodd" clip-rule="evenodd" d="M29.8595 36.7006C29.8595 36.7006 29.6555 35.9649 28.7752 35.9649C27.4446 35.9649 27.1205 37.979 27.1205 37.979C27.0122 36.3873 26.6777 35.9166 25.7385 35.9166L24.4531 35.9208C24.4531 35.9208 25.1979 36.3093 25.1979 37.9627L25.1956 44.0901C25.1956 46.1118 25.8351 46.1453 25.8351 46.1453H27.9537C27.8989 46.1118 27.1404 45.383 27.1404 44.0737L27.1425 39.0572C27.1982 38.6019 27.3825 38.2521 27.6622 38.0216C28.3609 37.4458 29.3136 37.5821 29.8595 38.4318C29.8595 38.4318 29.8595 37.3477 29.8595 36.7006Z" fill="#E02042"/>
<path id="path38" fill-rule="evenodd" clip-rule="evenodd" d="M39.7458 37.0709C40.463 37.0709 40.9988 37.4702 40.9988 37.4702L41.0047 35.9282H39.2229L39.2238 33.5902C39.2238 33.5902 38.7561 34.6217 37.7976 35.6239C37.1963 36.2538 35.9328 37.0307 35.9328 37.0307L37.2781 37.0615L37.276 44.1724C37.276 46.1446 37.9232 46.1446 37.9232 46.1446C39.0854 46.1446 40.0394 46.15 40.0394 46.15C40.0394 46.15 39.2208 45.4518 39.2208 44.1549L39.2229 37.0669C39.7814 37.0694 39.3964 37.0709 39.7458 37.0709Z" fill="#E02042"/>
<path id="path40" fill-rule="evenodd" clip-rule="evenodd" d="M46.1872 40.158C44.9986 41.7418 44.0656 41.4937 43.3187 42.654C43.3187 42.6555 43.4385 44.2272 44.3823 44.7818C44.7053 44.9721 46.0138 45.5736 46.8617 43.71L46.8554 45.3594C46.8554 45.3594 46.3116 46.1646 44.5843 46.1646C42.5028 46.1646 41.0773 44.0799 41.0773 41.2526C41.0773 38.4724 42.2398 35.8915 44.4339 35.8772C46.5848 35.8624 47.7491 38.076 46.1872 40.158ZM44.8863 39.5093C45.2383 38.6812 45.5149 36.5789 44.3128 36.6941C42.9202 36.827 43.1854 41.5447 43.1854 41.5447C43.6513 40.9001 44.3497 40.7688 44.8863 39.5093Z" fill="#E02042"/>
<path id="path42" fill-rule="evenodd" clip-rule="evenodd" d="M22.3485 35.1023C22.8943 35.1023 23.3371 34.5504 23.3371 33.8698C23.3371 33.1892 22.8943 32.637 22.3485 32.637C21.8025 32.637 21.3597 33.1892 21.3597 33.8698C21.3597 34.5504 21.8025 35.1023 22.3485 35.1023Z" fill="#E02042"/>
<path id="path44" fill-rule="evenodd" clip-rule="evenodd" d="M32.0672 44.9906C31.5836 44.9906 31.2387 44.3503 31.2387 43.6939C31.2387 41.1428 32.8782 40.7903 33.3169 40.1098L33.3202 44.4107C33.1266 44.6302 32.9298 44.9906 32.0672 44.9906ZM33.3169 39.1249C32.8237 40.2249 28.9895 40.4579 29.5776 44.2352C29.8101 45.7331 30.5936 46.1699 31.5794 46.1699C32.5367 46.1699 33.1119 45.5333 33.3525 44.9413C33.4957 46.0787 33.947 46.1444 33.947 46.1444C35.0546 46.1444 36.0655 46.1498 36.0655 46.1498C36.0655 46.1498 35.2407 45.4516 35.2407 44.1037V38.3611C35.2407 36.9877 34.0449 35.9184 32.7743 35.9184C31.553 35.9184 30.7851 36.6675 30.7851 36.6675C30.7851 37.1271 30.7851 38.4495 30.7851 38.4495C30.7851 38.4495 31.2207 37.0375 32.326 37.0375C33.404 37.0375 33.484 37.7218 33.4778 38.0637C33.4778 38.0637 33.5865 38.5258 33.3169 39.1249Z" fill="#E02042"/>
<path id="path46" fill-rule="evenodd" clip-rule="evenodd" d="M50.8774 43.3755C50.8891 44.0976 50.3818 45.0463 49.3029 45.0463C48.1982 45.0463 47.7566 43.6062 47.7566 43.6062V45.4311C47.7566 45.4311 48.5539 46.1547 49.7751 46.1547C51.2244 46.1547 52.6898 44.7516 52.6571 42.7979C52.6464 42.1108 52.454 41.5251 52.1595 41.0201C51.6693 40.1826 50.7764 39.5973 50.0852 39.0556C49.6909 38.7462 49.4815 38.193 49.4764 37.9986C49.4647 37.6568 49.5951 36.9656 50.6743 36.9656C51.7271 36.9656 52.1754 38.3776 52.1754 38.3776L52.1712 36.6682C52.1712 36.6682 51.3655 35.8535 50.1443 35.8535C48.8736 35.8535 47.7198 36.9227 47.7416 38.2961C47.7617 39.5019 48.1602 40.2831 48.9347 41.0189C49.2409 41.3094 49.6058 41.5921 50.0286 41.891C50.6449 42.3265 50.869 42.8598 50.8774 43.3755Z" fill="#E02042"/>
</g>
</g>
</g>
</svg>
