<svg width="36" height="32" viewBox="0 0 36 32" fill="none" xmlns="http://www.w3.org/2000/svg">
<g id="Vector" filter="url(#filter0_d_1_337)">
<path d="M24.1292 4.88283C23.7406 4.74071 23.3021 4.79756 22.9564 5.01408L14.6444 10.5591L8.70748 8.38783C7.81154 8.06017 6.79841 8.45554 6.43929 9.27301C6.08017 10.0905 6.5135 11.0149 7.40944 11.3425L13.3464 13.5138L15.1596 22.7619C15.2142 23.0266 15.3721 23.2642 15.6039 23.4309C15.8358 23.5976 16.126 23.6819 16.4208 23.6684C16.7156 23.6549 16.9951 23.5444 17.2075 23.3574C17.4199 23.1704 17.5509 22.9195 17.5762 22.6512L18.2039 15.2903L24.1409 17.4616L24.8193 19.7674C24.8409 19.8476 24.8837 19.9219 24.9438 19.9837C25.004 20.0456 25.0797 20.0931 25.1645 20.1222L25.8014 20.3552C26.1576 20.4854 26.5551 20.265 26.5964 19.9143L26.9488 16.7738L29.0714 14.2807C29.307 14.0011 29.1864 13.5912 28.8301 13.4609L28.1933 13.228C28.1099 13.1956 28.0191 13.1823 27.9288 13.1891C27.8385 13.1959 27.7514 13.2226 27.675 13.2671L25.4389 14.5069L19.5019 12.3356L24.6202 6.61707C25.1411 6.03024 24.8848 5.15918 24.1292 4.88283Z" fill="#F8F6E7"/>
</g>
<defs>
<filter id="filter0_d_1_337" x="0.313095" y="0.80481" width="34.8799" height="30.865" filterUnits="userSpaceOnUse" color-interpolation-filters="sRGB">
<feFlood flood-opacity="0" result="BackgroundImageFix"/>
<feColorMatrix in="SourceAlpha" type="matrix" values="0 0 0 0 0 0 0 0 0 0 0 0 0 0 0 0 0 0 127 0" result="hardAlpha"/>
<feOffset dy="2"/>
<feGaussianBlur stdDeviation="3"/>
<feColorMatrix type="matrix" values="0 0 0 0 0.0431373 0 0 0 0 0.396078 0 0 0 0 0.352941 0 0 0 1 0"/>
<feBlend mode="normal" in2="BackgroundImageFix" result="effect1_dropShadow_1_337"/>
<feBlend mode="normal" in="SourceGraphic" in2="effect1_dropShadow_1_337" result="shape"/>
</filter>
</defs>
</svg>
